<svg xmlns="http://www.w3.org/2000/svg" xmlns:xlink="http://www.w3.org/1999/xlink" width="900" zoomAndPan="magnify" viewBox="0 0 675 675.000002" height="900" preserveAspectRatio="xMidYMid meet" version="1.0"><path fill="#262f76" d="M 562.789062 377.351562 C 562.789062 456.382812 470.535156 520.449219 356.6875 520.449219 C 242.839844 520.449219 150.582031 456.382812 150.582031 377.351562 C 150.582031 298.324219 242.878906 234.253906 356.6875 234.253906 C 470.492188 234.253906 562.789062 298.324219 562.789062 377.351562 Z M 562.789062 377.351562 " fill-opacity="1" fill-rule="nonzero"/><path fill="#fbdf00" d="M 553.015625 367.199219 C 553.015625 437.613281 464.894531 494.707031 356.207031 494.707031 C 247.519531 494.707031 159.402344 437.613281 159.402344 367.199219 C 159.402344 296.78125 247.492188 239.671875 356.207031 239.671875 C 464.921875 239.671875 553.015625 296.824219 553.015625 367.199219 Z M 553.015625 367.199219 " fill-opacity="1" fill-rule="nonzero"/><path fill="#262f76" d="M 555.472656 359.785156 L 555.117188 356.851562 C 551.992188 330.578125 537.046875 305.84375 511.890625 285.316406 L 510.089844 283.855469 L 508.070312 284.976562 C 473.125 304.246094 435.441406 305.066406 396.144531 287.433594 C 342.503906 263.382812 315.914062 291.210938 314.878906 292.34375 L 308.683594 298.691406 C 297.761719 297.492188 268.785156 301.136719 263.925781 301.761719 C 247.941406 300.617188 228.273438 294.269531 205.453125 282.875 L 203.515625 281.902344 L 201.808594 283.269531 C 174.304688 304.792969 158.390625 331.039062 155.785156 359.117188 L 159.195312 359.445312 L 158.707031 362.828125 C 173.09375 364.988281 187.160156 368.457031 200.902344 373.242188 C 214.644531 378.023438 227.828125 384.035156 240.449219 391.273438 L 241.117188 391.65625 C 240.34375 393.777344 239.941406 395.964844 239.917969 398.222656 C 239.917969 398.882812 239.953125 399.539062 240.015625 400.195312 C 240.082031 400.851562 240.179688 401.503906 240.308594 402.152344 C 240.4375 402.796875 240.597656 403.4375 240.792969 404.066406 C 240.984375 404.699219 241.207031 405.316406 241.457031 405.925781 C 241.710938 406.535156 241.992188 407.132812 242.304688 407.714844 C 242.617188 408.292969 242.953125 408.859375 243.320312 409.40625 C 243.6875 409.957031 244.082031 410.484375 244.5 410.996094 C 244.917969 411.503906 245.359375 411.992188 245.824219 412.460938 C 246.292969 412.925781 246.78125 413.367188 247.289062 413.785156 C 247.800781 414.207031 248.328125 414.597656 248.878906 414.964844 C 249.425781 415.332031 249.992188 415.671875 250.570312 415.980469 C 251.152344 416.292969 251.75 416.574219 252.359375 416.828125 C 252.96875 417.082031 253.585938 417.300781 254.21875 417.496094 C 254.847656 417.6875 255.488281 417.847656 256.136719 417.976562 C 256.78125 418.105469 257.433594 418.203125 258.089844 418.269531 C 258.746094 418.335938 259.402344 418.367188 260.0625 418.367188 C 260.765625 418.367188 261.46875 418.324219 262.164062 418.230469 C 262.511719 419.804688 263.039062 421.316406 263.742188 422.765625 C 264.449219 424.214844 265.316406 425.558594 266.339844 426.804688 C 267.363281 428.046875 268.519531 429.152344 269.808594 430.121094 C 271.097656 431.089844 272.480469 431.894531 273.957031 432.535156 C 276.289062 433.445312 278.703125 433.886719 281.203125 433.867188 C 283.703125 433.84375 286.113281 433.359375 288.425781 432.414062 C 288.890625 433.894531 289.507812 435.3125 290.277344 436.664062 C 291.046875 438.011719 291.953125 439.265625 292.996094 440.417969 C 294.035156 441.570312 295.1875 442.597656 296.453125 443.503906 C 297.71875 444.40625 299.0625 445.164062 300.492188 445.777344 C 302.976562 446.746094 305.550781 447.230469 308.21875 447.230469 C 310.882812 447.230469 313.460938 446.746094 315.941406 445.777344 C 316.085938 446.226562 316.246094 446.671875 316.417969 447.113281 C 316.589844 447.550781 316.777344 447.988281 316.980469 448.414062 C 317.179688 448.84375 317.394531 449.265625 317.621094 449.679688 C 317.847656 450.097656 318.085938 450.503906 318.339844 450.902344 C 318.59375 451.304688 318.859375 451.695312 319.136719 452.078125 C 319.414062 452.460938 319.707031 452.832031 320.007812 453.199219 C 320.308594 453.5625 320.621094 453.917969 320.945312 454.261719 C 321.269531 454.605469 321.605469 454.941406 321.953125 455.261719 C 322.296875 455.585938 322.652344 455.898438 323.019531 456.199219 C 323.382812 456.5 323.757812 456.789062 324.140625 457.066406 C 324.527344 457.339844 324.917969 457.605469 325.316406 457.859375 C 325.71875 458.109375 326.128906 458.347656 326.542969 458.574219 C 326.957031 458.800781 327.382812 459.011719 327.808594 459.210938 C 328.238281 459.410156 328.675781 459.59375 329.117188 459.765625 C 329.558594 459.9375 330.003906 460.09375 330.453125 460.238281 C 330.90625 460.378906 331.359375 460.507812 331.820312 460.625 C 332.277344 460.738281 332.742188 460.835938 333.207031 460.921875 C 333.671875 461.003906 334.140625 461.074219 334.609375 461.128906 C 335.082031 461.183594 335.550781 461.222656 336.023438 461.25 C 336.496094 461.273438 336.96875 461.285156 337.441406 461.277344 C 337.914062 461.273438 338.386719 461.253906 338.859375 461.21875 C 339.332031 461.183594 339.800781 461.132812 340.269531 461.066406 C 340.738281 461 341.207031 460.921875 341.667969 460.828125 C 342.132812 460.730469 342.59375 460.621094 343.050781 460.5 C 343.503906 460.375 343.957031 460.234375 344.40625 460.082031 C 344.851562 459.929688 345.296875 459.761719 345.734375 459.582031 C 346.171875 459.402344 346.601562 459.207031 347.027344 458.996094 C 347.449219 458.789062 347.867188 458.566406 348.277344 458.332031 C 348.691406 458.097656 349.09375 457.851562 349.488281 457.589844 C 349.882812 457.328125 350.269531 457.054688 350.644531 456.769531 C 351.023438 456.484375 351.390625 456.1875 351.75 455.878906 C 352.109375 455.570312 352.457031 455.25 352.796875 454.921875 C 354.910156 456.027344 363.523438 460.214844 372.574219 460.214844 C 374.011719 460.277344 375.445312 460.183594 376.863281 459.941406 C 378.285156 459.695312 379.664062 459.304688 381 458.765625 C 382.335938 458.226562 383.601562 457.550781 384.796875 456.742188 C 385.988281 455.933594 387.082031 455.007812 388.078125 453.964844 C 397.277344 454.195312 412.511719 451.125 416.222656 438.335938 C 425.519531 437.84375 439.699219 433.066406 443.523438 417.34375 C 448.246094 417.03125 457.539062 415.691406 462.890625 410.097656 C 463.578125 409.410156 464.210938 408.675781 464.78125 407.890625 C 465.355469 407.105469 465.863281 406.28125 466.304688 405.414062 C 466.746094 404.550781 467.117188 403.65625 467.414062 402.730469 C 467.714844 401.804688 467.9375 400.863281 468.085938 399.902344 C 468.238281 398.945312 468.308594 397.976562 468.304688 397.007812 C 468.300781 396.035156 468.222656 395.070312 468.0625 394.109375 C 467.90625 393.152344 467.675781 392.210938 467.367188 391.289062 C 467.058594 390.367188 466.683594 389.476562 466.234375 388.613281 C 471.871094 385.527344 490.609375 377.859375 552.699219 360.5625 Z M 555.472656 359.785156 " fill-opacity="1" fill-rule="nonzero"/><path fill="#ffffff" d="M 321.8125 440.464844 L 321.238281 435.171875 L 316.652344 437.898438 C 315.65625 438.542969 314.601562 439.0625 313.488281 439.460938 C 312.371094 439.859375 311.226562 440.125 310.050781 440.261719 C 308.875 440.394531 307.695312 440.390625 306.519531 440.253906 C 305.34375 440.117188 304.199219 439.84375 303.085938 439.441406 C 298.429688 437.558594 295.15625 432.988281 294.078125 426.886719 L 293.191406 421.917969 L 288.890625 424.566406 C 288.003906 425.175781 287.058594 425.675781 286.054688 426.0625 C 285.046875 426.449219 284.011719 426.714844 282.945312 426.859375 C 281.878906 427 280.808594 427.015625 279.738281 426.90625 C 278.664062 426.792969 277.621094 426.558594 276.605469 426.203125 C 272.117188 424.375 269.03125 419.734375 268.417969 413.78125 L 267.953125 409.6875 L 264.007812 410.886719 C 262.761719 411.292969 261.484375 411.507812 260.171875 411.53125 C 259.625 411.53125 259.082031 411.5 258.539062 411.433594 C 257.996094 411.367188 257.460938 411.269531 256.929688 411.136719 C 256.402344 411.007812 255.882812 410.84375 255.371094 410.648438 C 254.859375 410.453125 254.367188 410.226562 253.882812 409.96875 C 253.402344 409.710938 252.9375 409.425781 252.488281 409.109375 C 252.042969 408.796875 251.617188 408.457031 251.214844 408.089844 C 250.808594 407.722656 250.425781 407.332031 250.070312 406.917969 C 249.714844 406.503906 249.382812 406.070312 249.082031 405.617188 C 248.777344 405.160156 248.503906 404.691406 248.261719 404.203125 C 248.015625 403.714844 247.800781 403.210938 247.617188 402.699219 C 247.433594 402.183594 247.285156 401.660156 247.167969 401.125 C 247.046875 400.59375 246.964844 400.054688 246.910156 399.511719 C 246.859375 398.964844 246.839844 398.421875 246.855469 397.875 C 246.871094 397.328125 246.921875 396.785156 247.003906 396.246094 C 247.085938 395.707031 247.199219 395.171875 247.347656 394.648438 C 247.496094 394.121094 247.675781 393.605469 247.886719 393.105469 L 248.570312 391.890625 C 249.699219 389.808594 251.273438 388.144531 253.292969 386.90625 L 253.527344 386.769531 C 254.394531 386.292969 255.304688 385.914062 256.253906 385.625 L 256.882812 385.433594 C 257.941406 385.144531 259.019531 384.996094 260.117188 384.980469 C 261.292969 384.992188 262.445312 385.15625 263.574219 385.472656 C 264.707031 385.789062 265.773438 386.246094 266.785156 386.84375 C 267.792969 387.445312 268.707031 388.164062 269.527344 389.007812 C 270.34375 389.847656 271.039062 390.78125 271.609375 391.808594 L 273.65625 395.398438 L 276.8125 392.667969 C 281.410156 388.777344 287.035156 387.480469 291.578125 389.324219 C 295.320312 390.835938 298.035156 394.277344 299.265625 398.988281 L 300.519531 403.859375 L 304.613281 400.910156 C 309.542969 397.347656 315.191406 396.339844 319.875 398.179688 C 327.054688 401.101562 330.710938 410.042969 328.773438 419.925781 L 327.707031 425.382812 L 333.074219 423.867188 C 334.4375 423.453125 335.835938 423.234375 337.261719 423.214844 C 338.285156 423.214844 339.296875 423.316406 340.300781 423.515625 C 341.304688 423.714844 342.277344 424.011719 343.222656 424.402344 C 344.164062 424.792969 345.0625 425.273438 345.914062 425.84375 C 346.761719 426.410156 347.546875 427.054688 348.269531 427.777344 C 348.996094 428.5 349.640625 429.289062 350.207031 430.136719 C 350.777344 430.988281 351.257812 431.886719 351.648438 432.828125 C 352.039062 433.773438 352.335938 434.746094 352.535156 435.75 C 352.734375 436.753906 352.835938 437.765625 352.835938 438.789062 C 352.828125 439.734375 352.738281 440.667969 352.5625 441.597656 C 352.46875 442.078125 352.316406 442.554688 352.183594 442.964844 C 352.046875 443.375 351.976562 443.6875 351.839844 444.042969 C 351.589844 444.707031 351.300781 445.351562 350.96875 445.980469 L 350.816406 446.238281 C 350.414062 446.972656 349.957031 447.675781 349.453125 448.339844 L 349.207031 448.65625 C 348.722656 449.242188 348.203125 449.792969 347.636719 450.300781 C 347.074219 450.8125 346.476562 451.277344 345.847656 451.699219 C 345.214844 452.121094 344.554688 452.496094 343.867188 452.820312 C 343.179688 453.144531 342.472656 453.417969 341.746094 453.636719 C 341.019531 453.855469 340.28125 454.023438 339.527344 454.132812 C 338.777344 454.242188 338.019531 454.300781 337.261719 454.296875 C 336.5 454.296875 335.746094 454.242188 334.996094 454.128906 C 334.242188 454.015625 333.503906 453.851562 332.777344 453.628906 C 332.050781 453.40625 331.34375 453.132812 330.65625 452.808594 C 329.96875 452.484375 329.3125 452.109375 328.679688 451.6875 C 328.050781 451.261719 327.453125 450.796875 326.890625 450.285156 C 326.328125 449.773438 325.808594 449.222656 325.324219 448.636719 C 324.84375 448.046875 324.410156 447.429688 324.019531 446.777344 C 323.628906 446.125 323.289062 445.445312 323 444.742188 C 322.710938 444.039062 322.476562 443.320312 322.292969 442.582031 C 322.109375 441.847656 321.980469 441.097656 321.90625 440.34375 Z M 321.8125 440.464844 " fill-opacity="1" fill-rule="nonzero"/><path fill="#ffffff" d="M 457.851562 405.347656 C 454.371094 409.003906 447.410156 410.179688 443.140625 410.480469 L 409.015625 379.277344 C 407.652344 377.980469 405.960938 377.011719 404.636719 378.390625 C 403.3125 379.769531 404.746094 382.035156 406.109375 383.34375 L 437.066406 414.207031 C 434.335938 429.492188 419.949219 431.335938 415.144531 431.511719 L 393.824219 409.359375 C 392.554688 407.996094 390.726562 406.628906 389.320312 407.84375 C 387.914062 409.058594 389.417969 411.09375 390.6875 412.5 L 409.726562 435.703125 C 407.390625 445.40625 395.09375 446.894531 389.527344 447.058594 L 368.875 425.671875 C 367.605469 424.304688 365.914062 423.023438 364.492188 424.304688 C 363.074219 425.589844 364.34375 427.648438 365.613281 429.070312 L 382.621094 449.691406 C 375.070312 457.007812 361.328125 451.441406 356.972656 449.378906 C 357.09375 449.148438 357.191406 448.914062 357.300781 448.683594 C 357.558594 448.152344 357.832031 447.632812 358.050781 447.070312 C 358.484375 446.015625 358.820312 444.925781 359.0625 443.808594 C 359.144531 443.484375 359.199219 443.15625 359.25 442.828125 C 359.507812 441.523438 359.640625 440.210938 359.648438 438.882812 C 359.648438 438.125 359.613281 437.367188 359.535156 436.613281 C 359.460938 435.855469 359.34375 435.105469 359.195312 434.363281 C 359.042969 433.621094 358.851562 432.886719 358.625 432.160156 C 358.398438 431.4375 358.136719 430.726562 357.835938 430.027344 C 357.539062 429.332031 357.203125 428.648438 356.835938 427.984375 C 356.46875 427.320312 356.066406 426.679688 355.632812 426.054688 C 355.199219 425.433594 354.734375 424.832031 354.242188 424.257812 C 353.746094 423.683594 353.222656 423.132812 352.671875 422.609375 C 352.121094 422.085938 351.546875 421.59375 350.945312 421.128906 C 350.347656 420.664062 349.722656 420.234375 349.078125 419.832031 C 348.433594 419.429688 347.773438 419.0625 347.089844 418.730469 C 346.40625 418.398438 345.710938 418.097656 345 417.835938 C 344.285156 417.574219 343.5625 417.347656 342.828125 417.160156 C 342.09375 416.96875 341.351562 416.820312 340.597656 416.703125 C 339.847656 416.589844 339.09375 416.515625 338.335938 416.480469 C 337.578125 416.441406 336.820312 416.445312 336.0625 416.484375 C 336.621094 405.277344 331.394531 395.546875 322.414062 391.917969 C 320.957031 391.351562 319.453125 390.945312 317.910156 390.707031 C 316.367188 390.46875 314.8125 390.394531 313.253906 390.492188 C 311.691406 390.59375 310.160156 390.855469 308.65625 391.285156 C 307.15625 391.71875 305.714844 392.304688 304.339844 393.050781 C 303.855469 392.019531 303.292969 391.039062 302.648438 390.101562 C 302.582031 389.992188 302.527344 389.867188 302.445312 389.757812 C 302.363281 389.648438 301.992188 389.226562 301.777344 388.953125 C 299.757812 386.28125 297.203125 384.292969 294.117188 382.988281 C 288.167969 380.574219 281.355469 381.433594 275.335938 385.242188 C 274.453125 384.203125 273.472656 383.269531 272.390625 382.445312 C 272.390625 382.445312 272.265625 382.308594 272.183594 382.253906 C 271.625 381.828125 270.984375 381.527344 270.382812 381.160156 C 267.230469 379.183594 263.796875 378.171875 260.078125 378.128906 C 258.855469 378.144531 257.644531 378.265625 256.445312 378.5 L 255.804688 378.609375 C 254.785156 378.839844 253.789062 379.152344 252.816406 379.535156 L 251.75 379.988281 C 250.910156 380.382812 250.097656 380.835938 249.320312 381.351562 C 248.898438 381.625 248.488281 381.925781 248.078125 382.238281 C 247.671875 382.554688 247.261719 382.894531 246.863281 383.234375 C 246.148438 383.867188 245.480469 384.542969 244.859375 385.269531 C 244.722656 385.433594 244.570312 385.570312 244.449219 385.734375 L 243.875 385.40625 C 231.953125 378.554688 219.53125 372.761719 206.621094 368.027344 C 193.710938 363.292969 180.488281 359.6875 166.964844 357.207031 C 165.597656 356.972656 161.394531 356.757812 160.136719 356.539062 C 163.320312 332.148438 177.28125 307.863281 201.179688 288.632812 C 202.152344 289.097656 206.21875 290.925781 207.171875 291.363281 C 228.929688 301.75 247.941406 307.550781 263.75 308.601562 L 264.417969 308.601562 C 275.9375 307.101562 293.082031 305.324219 302.9375 305.285156 L 276.15625 332.789062 L 277.519531 335.039062 C 282.105469 342.792969 289.628906 345.085938 296.902344 345.085938 C 304.082031 344.835938 310.949219 343.234375 317.5 340.28125 L 317.992188 339.996094 C 317.992188 339.996094 328.5 332.707031 342.792969 322.988281 L 346.777344 320.257812 C 360.425781 310.921875 370.265625 319.085938 370.800781 319.535156 C 371.332031 319.984375 429.871094 365.941406 451.082031 383.6875 L 459.082031 390.074219 C 459.511719 390.628906 459.882812 391.21875 460.203125 391.847656 C 460.519531 392.472656 460.78125 393.121094 460.980469 393.792969 C 461.179688 394.464844 461.316406 395.152344 461.386719 395.851562 C 461.460938 396.546875 461.46875 397.246094 461.414062 397.945312 C 461.355469 398.648438 461.238281 399.335938 461.054688 400.011719 C 460.871094 400.691406 460.625 401.34375 460.320312 401.976562 C 460.015625 402.609375 459.65625 403.210938 459.242188 403.777344 C 458.828125 404.34375 458.363281 404.867188 457.851562 405.347656 Z M 457.851562 405.347656 " fill-opacity="1" fill-rule="nonzero"/><path fill="#ffffff" d="M 461.578125 383.34375 L 455.382812 378.390625 C 434.132812 360.644531 375.578125 314.632812 375.140625 314.238281 C 370.308594 310.007812 357.394531 304.683594 342.832031 314.59375 L 338.875 317.324219 L 340.8125 320.164062 L 338.941406 317.296875 C 325.921875 326.15625 316.023438 332.992188 314.375 334.152344 C 312.054688 335.191406 293.421875 343.039062 284.988281 333.605469 L 312.789062 304.328125 L 319.832031 297.082031 C 320.066406 296.824219 344.128906 271.640625 393.320312 293.695312 C 430.40625 310.320312 467.488281 311.070312 501.257812 296.042969 C 503.988281 294.828125 510.46875 291.621094 513.132812 290.214844 C 534.902344 308.507812 548.386719 330.863281 551.9375 353.644531 C 488.34375 371.414062 467.011719 380 461.578125 383.34375 Z M 461.578125 383.34375 " fill-opacity="1" fill-rule="nonzero"/><path fill="#ffffff" d="M 170.332031 192.324219 L 175.34375 214.226562 L 197.242188 219.234375 L 175.34375 224.25 L 170.332031 246.148438 L 165.316406 224.25 L 143.417969 219.234375 L 165.316406 214.226562 Z M 170.332031 192.324219 " fill-opacity="1" fill-rule="nonzero"/><path fill="#ffffff" d="M 117.5 239.199219 L 121.125 255.046875 L 136.972656 258.671875 L 121.125 262.304688 L 117.5 278.144531 L 113.875 262.304688 L 98.027344 258.671875 L 113.875 255.046875 Z M 117.5 239.199219 " fill-opacity="1" fill-rule="nonzero"/><path fill="#ffffff" d="M 565.4375 502.605469 L 569.0625 518.453125 L 584.910156 522.078125 L 569.0625 525.707031 L 565.4375 541.550781 L 561.8125 525.707031 L 545.964844 522.078125 L 561.8125 518.453125 Z M 565.4375 502.605469 " fill-opacity="1" fill-rule="nonzero"/></svg>